<?xml version="1.0" encoding="UTF-8" standalone="no"?>
<svg
   xmlns:dc="http://purl.org/dc/elements/1.1/"
   xmlns:cc="http://creativecommons.org/ns#"
   xmlns:rdf="http://www.w3.org/1999/02/22-rdf-syntax-ns#"
   xmlns:svg="http://www.w3.org/2000/svg"
   xmlns="http://www.w3.org/2000/svg"
   xmlns:sodipodi="http://sodipodi.sourceforge.net/DTD/sodipodi-0.dtd"
   xmlns:inkscape="http://www.inkscape.org/namespaces/inkscape"
   width="32"
   height="32"
   viewBox="0 0 8.4666665 8.4666672"
   version="1.1"
   id="svg8"
   inkscape:version="1.0.1 (3bc2e813f5, 2020-09-07)"
   sodipodi:docname="magazut_favicon.svg">
  <defs
     id="defs2">
    <rect
       x="-23.006392"
       y="8.9683075"
       width="15.497774"
       height="15.836388"
       id="rect983" />
    <rect
       x="-89.305698"
       y="88.910966"
       width="12.621974"
       height="15.983817"
       id="rect977" />
    <rect
       x="-89.305698"
       y="88.910966"
       width="12.621974"
       height="15.983817"
       id="rect995" />
    <rect
       x="-23.006392"
       y="8.9683075"
       width="15.497774"
       height="15.836388"
       id="rect997" />
  </defs>
  <sodipodi:namedview
     id="base"
     pagecolor="#ffffff"
     bordercolor="#666666"
     borderopacity="1.0"
     inkscape:pageopacity="0.0"
     inkscape:pageshadow="2"
     inkscape:zoom="5.6568543"
     inkscape:cx="-47.133641"
     inkscape:cy="13.21039"
     inkscape:document-units="mm"
     inkscape:current-layer="layer1"
     inkscape:document-rotation="0"
     showgrid="false"
     units="px"
     inkscape:window-width="1878"
     inkscape:window-height="1043"
     inkscape:window-x="0"
     inkscape:window-y="0"
     inkscape:window-maximized="1"
     inkscape:snap-global="false" />
  <metadata
     id="metadata5">
    <rdf:RDF>
      <cc:Work
         rdf:about="">
        <dc:format>image/svg+xml</dc:format>
        <dc:type
           rdf:resource="http://purl.org/dc/dcmitype/StillImage" />
        <dc:title></dc:title>
      </cc:Work>
    </rdf:RDF>
  </metadata>
  <g
     inkscape:label="Layer 1"
     inkscape:groupmode="layer"
     id="layer1">
    <g
       id="g971"
       transform="matrix(1.1739286,0,0,1.1739286,-14.519802,-13.915559)">
      <path
         sodipodi:nodetypes="cccc"
         inkscape:connector-curvature="0"
         id="path993"
         d="M 6.0675009,5.0881269 C 6.0624704,4.1539377 5.279808,3.3991554 4.3159638,3.3989786 c -0.9675416,-8.5e-6 -1.7518962,0.760209 -1.7519057,1.6979936 9.5e-6,0.9377856 0.7843641,1.6980022 1.7519057,1.6979955"
         style="fill:none;fill-opacity:1;stroke:#0c8c1d;stroke-width:0.320854;stroke-linecap:butt;stroke-linejoin:miter;stroke-miterlimit:4;stroke-dasharray:none;stroke-dashoffset:0;stroke-opacity:1" />
      <path
         sodipodi:nodetypes="ccccc"
         inkscape:connector-curvature="0"
         id="path995"
         d="M 5.2883127,4.0717253 C 4.9931311,3.8490713 4.6336344,3.7282774 4.2638948,3.7275201 c -0.9427425,1.61e-5 -1.706968,0.7642819 -1.706933,1.7070243 1.61e-5,0.9427055 0.7642266,1.7069164 1.706933,1.7069325 0.017211,-3.782e-4 0.034416,-8.509e-4 0.051608,-0.00183"
         style="fill:none;fill-opacity:1;stroke:#0c8c1d;stroke-width:0.0963039;stroke-linecap:butt;stroke-linejoin:miter;stroke-miterlimit:4;stroke-dasharray:none;stroke-dashoffset:0;stroke-opacity:1" />
      <path
         sodipodi:nodetypes="ccccc"
         inkscape:connector-curvature="0"
         id="path997"
         d="M 5.1387418,4.1902398 C 4.8744782,4.031513 4.5721629,3.9473105 4.2638948,3.9465768 c -0.9427425,1.51e-5 -1.706968,0.7642828 -1.706933,1.7070242 1.61e-5,0.9427065 0.7642266,1.7069174 1.706933,1.7069335 0.017211,-3.782e-4 0.034416,-8.509e-4 0.051608,-0.00183"
         style="fill:none;fill-opacity:1;stroke:#0c8c1d;stroke-width:0.0963039;stroke-linecap:butt;stroke-linejoin:miter;stroke-miterlimit:4;stroke-dasharray:none;stroke-dashoffset:0;stroke-opacity:1" />
      <path
         sodipodi:nodetypes="cccc"
         inkscape:connector-curvature="0"
         id="path999"
         d="M 5.0264947,4.314008 C 4.7898598,4.1949905 4.5287735,4.1326763 4.2638948,4.1319975 3.3211884,4.1320117 2.5569779,4.8962226 2.5569618,5.838929 c 1.61e-5,0.9427074 0.820529,1.7152598 1.7632356,1.7152759"
         style="fill:none;fill-opacity:1;stroke:#0c8c1d;stroke-width:0.0963039;stroke-linecap:butt;stroke-linejoin:miter;stroke-miterlimit:4;stroke-dasharray:none;stroke-dashoffset:0;stroke-opacity:1" />
      <path
         sodipodi:nodetypes="ccccc"
         inkscape:connector-curvature="0"
         id="path1001"
         d="M 4.9167356,4.4898422 C 4.7097898,4.4039492 4.487958,4.3596385 4.2638948,4.35944 c -0.9427425,1.61e-5 -1.706968,0.7642828 -1.706933,1.7070261 1.61e-5,0.9427064 0.7642266,1.7069174 1.706933,1.7069316 0.017211,-3.782e-4 0.034416,-8.509e-4 0.051608,-0.00183"
         style="fill:none;fill-opacity:1;stroke:#0c8c1d;stroke-width:0.0963039;stroke-linecap:butt;stroke-linejoin:miter;stroke-miterlimit:4;stroke-dasharray:none;stroke-dashoffset:0;stroke-opacity:1" />
    </g>
    <path
       style="fill:none;stroke:#0c8c1d;stroke-width:0.526184;stroke-linecap:butt;stroke-linejoin:miter;stroke-miterlimit:4;stroke-dasharray:none;stroke-opacity:1;paint-order:normal"
       d="M 8.1878205,2.5113304 4.1690978,0.47348397 V 2.399463 L 0.26309201,0.42753847 V 8.2012729"
       id="path845"
       sodipodi:nodetypes="ccccc"
       inkscape:export-filename="/home/lucaf/Desktop/favicon.ico.png"
       inkscape:export-xdpi="97.847458"
       inkscape:export-ydpi="97.847458" />
    <path
       style="fill:#000000;stroke:#0c8c1d;stroke-width:0.526184;stroke-linecap:butt;stroke-linejoin:miter;stroke-miterlimit:4;stroke-dasharray:none;stroke-opacity:1;paint-order:normal;fill-opacity:0"
       d="M -23.401974,2.5113304 -27.420697,0.47348397 V 2.399463 L -31.326702,0.42753847 V 8.2012729"
       id="path973"
       sodipodi:nodetypes="ccccc" />
    <text
       xml:space="preserve"
       id="text975"
       style="font-style:normal;font-weight:normal;font-size:10.5833px;line-height:1.25;font-family:sans-serif;white-space:pre;shape-inside:url(#rect977);fill:#000000;fill-opacity:1;stroke:none;"
       transform="translate(56.007855,-83.975838)"><tspan
         x="-89.306641"
         y="98.597937"><tspan
           style="font-style:normal;font-variant:normal;font-weight:normal;font-stretch:normal;font-family:Akaash;-inkscape-font-specification:Akaash">U</tspan></tspan></text>
    <text
       xml:space="preserve"
       id="text981"
       style="font-style:normal;font-weight:normal;font-size:10.5833px;line-height:1.25;font-family:sans-serif;white-space:pre;shape-inside:url(#rect983);fill:#000000;fill-opacity:1;stroke:none;"
       transform="translate(-3.7392662,-3.7689398)"><tspan
         x="-23.005859"
         y="18.656531"><tspan
           style="font-style:normal;font-variant:normal;font-weight:normal;font-stretch:normal;font-family:Akaash;-inkscape-font-specification:Akaash">T</tspan></tspan></text>
    <g
       aria-label="U"
       transform="matrix(0.61005113,0,0,0.61005113,55.393513,-53.019592)"
       id="text989"
       style="font-style:normal;font-weight:normal;font-size:10.5833px;line-height:1.25;font-family:sans-serif;white-space:pre;shape-inside:url(#rect995);fill:#0c8c1d;fill-opacity:1;stroke:none"
       inkscape:export-filename="/home/lucaf/Desktop/favicon.ico.png"
       inkscape:export-xdpi="97.847458"
       inkscape:export-ydpi="97.847458">
      <path
         d="m -84.748794,92.324438 h 0.894 v 4.883408 q 0,1.064531 -0.759642,1.684646 -0.723467,0.599445 -1.922357,0.599445 -1.34875,0 -2.06705,-0.733803 -0.58911,-0.599445 -0.58911,-1.550288 v -4.883408 h 0.888832 v 4.883408 q 0,1.007687 0.873329,1.34875 0.382404,0.144694 0.893999,0.144694 1.049029,0 1.508947,-0.604612 0.279052,-0.361734 0.279052,-0.888832 z"
         style="font-style:normal;font-variant:normal;font-weight:normal;font-stretch:normal;font-family:Akaash;-inkscape-font-specification:Akaash;fill:#0c8c1d;fill-opacity:1"
         id="path1003" />
    </g>
    <g
       aria-label="T"
       transform="matrix(0.62358378,0,0,0.62358378,19.214574,-4.4357461)"
       id="text993"
       style="font-style:normal;font-weight:normal;font-size:10.5833px;line-height:1.25;font-family:sans-serif;white-space:pre;shape-inside:url(#rect997);fill:#0c8c1d;fill-opacity:1;stroke:none"
       inkscape:export-filename="/home/lucaf/Desktop/favicon.ico.png"
       inkscape:export-xdpi="97.847458"
       inkscape:export-ydpi="97.847458">
      <path
         d="m -20.210173,13.189182 v 6.159811 h -0.888832 v -6.159811 h -2.284091 v -0.785479 h 5.441511 v 0.785479 z"
         style="font-style:normal;font-variant:normal;font-weight:normal;font-stretch:normal;font-family:Akaash;-inkscape-font-specification:Akaash;fill:#0c8c1d;fill-opacity:1"
         id="path1000" />
    </g>
  </g>
</svg>
